<?xml version="1.0" encoding="UTF-8"?>
<!DOCTYPE svg PUBLIC "-//W3C//DTD SVG 1.1//EN" "http://www.w3.org/Graphics/SVG/1.1/DTD/svg11.dtd">
<!-- Creator: CorelDRAW X6 -->
<svg xmlns="http://www.w3.org/2000/svg" xml:space="preserve" width="15px" height="15px" version="1.1" style="shape-rendering:geometricPrecision; text-rendering:geometricPrecision; image-rendering:optimizeQuality; fill-rule:evenodd; clip-rule:evenodd"
viewBox="0 0 1500 1500"
 xmlns:xlink="http://www.w3.org/1999/xlink">
 <defs>
  <style type="text/css">
   <![CDATA[
    .str0 {stroke:#448CCB;stroke-width:100.01;stroke-linecap:round;stroke-linejoin:round}
    .fil0 {fill:none}
   ]]>
  </style>
 </defs>
 <g id="Слой_x0020_1">
  <metadata id="CorelCorpID_0Corel-Layer"/>
  <path class="fil0 str0" d="M363 634c-125,45 -213,147 -213,266 0,88 48,167 124,221 -24,84 -27,160 -9,229 39,-60 91,-116 153,-168 27,5 56,9 86,9 168,0 309,-97 345,-225m394 -156c67,-69 107,-157 107,-252 0,-225 -223,-408 -498,-408 -275,0 -498,183 -498,408 0,225 223,408 498,408 58,0 113,-8 165,-23 102,44 188,108 247,182 19,-108 6,-212 -21,-315z"/>
 </g>
</svg>
