<?xml version="1.0" encoding="UTF-8"?>
<!DOCTYPE svg PUBLIC "-//W3C//DTD SVG 1.1//EN" "http://www.w3.org/Graphics/SVG/1.1/DTD/svg11.dtd">
<!-- Creator: CorelDRAW X6 -->
<svg xmlns="http://www.w3.org/2000/svg" xml:space="preserve" width="119px" height="39px" version="1.1" style="shape-rendering:geometricPrecision; text-rendering:geometricPrecision; image-rendering:optimizeQuality; fill-rule:evenodd; clip-rule:evenodd"
viewBox="0 0 1479 483"
 xmlns:xlink="http://www.w3.org/1999/xlink">
 <defs>
  <style type="text/css">
   <![CDATA[
    .str0 {stroke:#448CCB;stroke-width:12.3837;stroke-linecap:round;stroke-linejoin:round}
    .fil1 {fill:none}
    .fil0 {fill:black;fill-rule:nonzero}
   ]]>
  </style>
 </defs>
 <g id="icons">
  <metadata id="CorelCorpID_0Corel-Layer"/>
  <path class="fil0" d="M607 185l0 -120 24 0 0 47 47 0 0 -47 25 0 0 120 -25 0 0 -53 -47 0 0 53 -24 0zm115 -45c0,-7 2,-15 5,-22 4,-7 9,-12 16,-16 7,-4 15,-6 23,-6 14,0 24,4 33,13 8,8 12,19 12,32 0,14 -4,25 -12,33 -9,9 -19,13 -32,13 -8,0 -16,-2 -23,-5 -7,-4 -13,-9 -17,-16 -3,-7 -5,-16 -5,-26zm23 2c0,8 2,15 6,19 5,5 10,7 16,7 6,0 11,-2 15,-7 4,-4 6,-11 6,-20 0,-8 -2,-15 -6,-19 -4,-5 -9,-7 -15,-7 -6,0 -11,2 -16,7 -4,4 -6,11 -6,20zm84 -44l50 0c11,0 18,2 24,6 5,3 7,9 7,17 0,5 -1,9 -4,12 -3,4 -6,6 -10,8 6,1 10,4 13,8 3,4 4,8 4,13 0,7 -2,12 -7,17 -5,4 -12,6 -22,6l-55 0 0 -87zm23 36l15 0c7,0 12,-1 16,-3 3,-1 4,-4 4,-8 0,-4 -1,-6 -4,-8 -3,-2 -8,-2 -16,-2l-15 0 0 21zm0 36l18 0c7,0 12,-1 15,-2 3,-2 4,-5 4,-9 0,-4 -2,-7 -5,-8 -3,-2 -10,-3 -20,-3l-12 0 0 22zm72 -30c0,-7 1,-15 5,-22 4,-7 9,-12 16,-16 7,-4 15,-6 23,-6 14,0 24,4 33,13 8,8 12,19 12,32 0,14 -4,25 -12,33 -9,9 -20,13 -32,13 -8,0 -16,-2 -23,-5 -7,-4 -13,-9 -17,-16 -4,-7 -5,-16 -5,-26zm23 2c0,8 2,15 6,19 4,5 10,7 16,7 6,0 11,-2 15,-7 4,-4 6,-11 6,-20 0,-8 -2,-15 -6,-19 -4,-5 -9,-7 -15,-7 -6,0 -12,2 -16,7 -4,4 -6,11 -6,20zm157 -18l-22 4c-1,-5 -3,-8 -6,-10 -2,-3 -6,-4 -10,-4 -6,0 -10,2 -14,6 -3,4 -5,11 -5,20 0,10 2,18 5,22 4,4 8,6 14,6 5,0 8,-1 11,-3 3,-3 5,-7 6,-13l23 4c-3,10 -7,18 -14,23 -7,6 -16,8 -27,8 -12,0 -23,-4 -30,-12 -8,-8 -12,-19 -12,-33 0,-15 4,-26 12,-34 7,-8 18,-12 31,-12 10,0 19,2 25,7 6,4 11,11 13,21zm7 -26l78 0 0 19 -28 0 0 68 -23 0 0 -68 -27 0 0 -19zm90 0l23 0 0 32 34 0 0 -32 23 0 0 87 -23 0 0 -37 -34 0 0 37 -23 0 0 -87zm97 42c0,-7 2,-15 5,-22 4,-7 9,-12 16,-16 7,-4 15,-6 23,-6 14,0 24,4 33,13 8,8 12,19 12,32 0,14 -4,25 -12,33 -9,9 -19,13 -32,13 -8,0 -16,-2 -23,-5 -7,-4 -13,-9 -17,-16 -3,-7 -5,-16 -5,-26zm23 2c0,8 2,15 6,19 5,5 10,7 16,7 6,0 11,-2 15,-7 4,-4 6,-11 6,-20 0,-8 -2,-15 -6,-19 -4,-5 -9,-7 -15,-7 -6,0 -11,2 -16,7 -4,4 -6,11 -6,20zm134 15l23 4c-3,9 -7,15 -14,20 -6,4 -14,6 -24,6 -15,0 -26,-5 -33,-15 -6,-8 -9,-18 -9,-30 0,-14 4,-26 11,-34 8,-8 17,-12 29,-12 13,0 23,4 31,13 7,8 11,22 10,39l-57 0c0,7 2,12 5,16 4,4 8,6 14,6 3,0 6,-1 9,-3 2,-2 4,-5 5,-10zm1 -23c0,-7 -1,-12 -5,-15 -3,-4 -7,-5 -12,-5 -5,0 -9,2 -12,5 -3,4 -5,9 -5,15l34 0z"/>
  <path class="fil0" d="M627 350l-21 -3c2,-9 6,-15 12,-19 6,-4 14,-6 25,-6 10,0 18,1 23,4 5,2 8,5 10,9 2,3 3,10 3,20l0 26c0,8 0,13 1,17 1,4 2,7 4,11l-22 0c-1,-1 -2,-3 -3,-6 0,-1 0,-2 0,-3 -4,4 -8,7 -13,9 -4,2 -9,3 -14,3 -9,0 -16,-3 -21,-8 -5,-4 -7,-10 -7,-18 0,-5 1,-9 3,-13 3,-3 6,-6 10,-8 4,-2 10,-4 18,-6 11,-2 18,-3 22,-5l0 -2c0,-5 -1,-8 -3,-10 -2,-2 -7,-3 -12,-3 -5,0 -8,1 -10,3 -2,1 -4,4 -5,8zm30 19c-3,0 -8,2 -14,3 -6,1 -10,3 -12,4 -3,2 -5,5 -5,8 0,3 2,6 4,8 2,2 5,4 9,4 4,0 8,-2 12,-4 2,-2 4,-5 5,-8 1,-2 1,-6 1,-11l0 -4zm44 -45l58 0 0 18 -35 0 0 67 -23 0 0 -85zm120 58l22 4c-2,8 -7,15 -13,19 -7,4 -14,7 -24,7 -15,0 -26,-5 -33,-15 -6,-8 -8,-18 -8,-30 0,-14 3,-25 11,-33 7,-8 17,-12 28,-12 13,0 23,4 30,13 7,8 11,21 11,38l-57 0c0,7 2,12 5,16 4,4 8,6 13,6 4,0 7,-1 9,-3 3,-2 5,-5 6,-10zm1 -23c0,-6 -2,-11 -5,-15 -3,-3 -7,-5 -12,-5 -5,0 -9,2 -12,6 -3,3 -5,8 -5,14l34 0zm41 -35l22 0 0 31 33 0 0 -31 22 0 0 85 -22 0 0 -36 -33 0 0 36 -22 0 0 -85zm90 0l78 0 0 18 -28 0 0 67 -22 0 0 -67 -28 0 0 -18zm164 25l-22 4c-1,-4 -2,-8 -5,-10 -3,-2 -6,-3 -10,-3 -6,0 -10,2 -14,6 -3,4 -5,10 -5,19 0,10 2,18 5,22 4,4 8,6 14,6 4,0 8,-1 11,-4 2,-2 4,-6 5,-12l23 4c-3,10 -7,18 -14,23 -6,5 -15,8 -26,8 -13,0 -23,-4 -30,-12 -7,-8 -11,-19 -11,-33 0,-14 4,-25 11,-33 8,-8 18,-12 30,-12 11,0 19,2 25,7 6,4 11,11 13,20zm8 -25l77 0 0 18 -27 0 0 67 -23 0 0 -67 -27 0 0 -18zm92 0l49 0c10,0 18,2 23,5 5,4 8,10 8,17 0,5 -2,9 -5,13 -2,3 -6,6 -10,7 6,1 10,4 13,8 3,4 5,8 5,13 0,7 -3,12 -8,16 -5,4 -12,6 -21,6l-54 0 0 -85zm22 35l15 0c7,0 12,0 15,-2 3,-2 5,-5 5,-9 0,-3 -1,-6 -4,-7 -3,-2 -9,-3 -16,-3l-15 0 0 21zm0 36l18 0c7,0 11,-1 14,-2 3,-2 5,-5 5,-9 0,-4 -2,-7 -5,-8 -4,-2 -10,-3 -20,-3l-12 0 0 22zm72 -29c0,-8 2,-15 5,-22 4,-7 9,-13 16,-16 7,-4 15,-6 23,-6 13,0 24,4 32,13 8,8 12,19 12,32 0,13 -4,23 -12,32 -9,8 -19,13 -32,13 -8,0 -15,-2 -22,-6 -7,-3 -13,-8 -17,-15 -3,-7 -5,-16 -5,-25zm23 1c0,8 2,15 6,19 4,5 9,7 15,7 6,0 11,-2 15,-7 4,-4 6,-11 6,-19 0,-9 -2,-15 -6,-20 -4,-4 -9,-7 -15,-7 -6,0 -11,3 -15,7 -4,5 -6,11 -6,20z"/>
  <path class="fil1 str0" d="M241 477c130,0 236,-106 236,-236 0,-129 -106,-235 -236,-235 -129,0 -235,106 -235,235 0,130 106,236 235,236zm-235 -236l471 0m-236 -235l0 471m0 -471c-85,58 -121,157 -121,235 0,79 36,178 121,236m0 0c86,-58 122,-157 122,-236 0,-78 -36,-177 -122,-235m-171 74c114,68 229,68 343,0m0 323c-114,-69 -229,-69 -343,0"/>
 </g>
</svg>
